<?xml version="1.0" standalone="no"?>
<!DOCTYPE svg PUBLIC "-//W3C//DTD SVG 20010904//EN"
 "http://www.w3.org/TR/2001/REC-SVG-20010904/DTD/svg10.dtd">
<svg version="1.0" xmlns="http://www.w3.org/2000/svg"
 width="512.000000pt" height="512.000000pt" viewBox="0 0 512.000000 512.000000"
 preserveAspectRatio="xMidYMid meet">
<metadata>
Created by potrace 1.14, written by Peter Selinger 2001-2017
</metadata>
<g transform="translate(0.000000,512.000000) scale(0.100000,-0.100000)"
fill="#000000" stroke="none">
<path d="M2045 5100 c-33 -10 -80 -28 -104 -41 -62 -33 -153 -129 -184 -194
-48 -98 -55 -142 -55 -390 -1 -126 -1 -263 -1 -302 l-1 -73 -127 0 c-137 0
-163 -7 -195 -50 -15 -21 -19 -43 -19 -117 0 -49 3 -101 6 -114 9 -36 66 -71
120 -72 47 -2 59 -11 26 -22 -86 -27 -138 -152 -105 -250 30 -88 118 -139 230
-134 30 2 55 1 58 -2 2 -2 6 -65 9 -139 3 -74 10 -150 16 -167 5 -18 8 -33 6
-33 -7 0 46 -141 71 -192 13 -26 24 -50 24 -53 0 -3 -323 -5 -717 -5 -488 0
-731 -4 -758 -11 -55 -15 -101 -52 -127 -102 -21 -41 -22 -51 -23 -450 -1
-455 2 -473 61 -531 57 -56 92 -62 332 -61 l213 0 -7 -25 c-27 -96 -40 -159
-39 -192 1 -37 0 -39 -24 -31 -15 4 -44 7 -65 7 -32 0 -44 -6 -68 -34 -28 -34
-28 -37 -27 -150 0 -63 0 -139 0 -167 l-1 -53 -96 0 c-106 0 -126 -7 -142 -47
-34 -88 -47 -347 -26 -499 24 -173 23 -173 161 -175 l101 -1 4 -85 c4 -75 7
-87 31 -111 l27 -27 1926 -3 1926 -2 34 34 c33 33 34 36 34 113 l0 79 103 2
c95 1 103 3 123 26 53 60 67 447 23 621 -17 66 -35 75 -151 75 l-98 0 0 171 0
171 -34 34 c-36 36 -71 43 -119 25 -24 -9 -24 -8 -30 47 -6 52 -27 144 -41
182 -5 13 23 15 222 15 l229 0 49 30 c31 20 58 47 74 75 l25 45 2 405 c2 263
-1 420 -8 446 -14 55 -62 112 -113 135 -39 18 -83 19 -773 19 -403 0 -733 3
-733 8 0 4 6 16 13 27 29 43 76 174 91 254 9 46 16 132 16 192 l0 109 65 0
c36 0 67 0 70 0 16 0 83 34 103 53 68 63 86 163 45 242 -24 47 -44 66 -97 92
l-39 20 49 -2 c104 -4 144 38 145 153 2 128 1 132 -35 168 l-34 34 -136 0
-136 0 0 294 c0 161 -5 318 -10 347 -23 125 -129 268 -239 324 -106 53 -129
55 -616 54 -401 -1 -457 -3 -510 -19z"/>
</g>
</svg>
